<svg width="31" height="31" viewBox="0 0 31 31" fill="none" xmlns="http://www.w3.org/2000/svg">
<g clip-path="url(#clip0)">
<path d="M30.0303 14.5318H17.7598C17.2251 14.5318 16.7911 14.0978 16.7911 13.5631C16.7911 13.0283 17.2251 12.5944 17.7598 12.5944H30.0303C30.5651 12.5944 30.999 13.0283 30.999 13.5631C30.999 14.0978 30.5651 14.5318 30.0303 14.5318Z" fill="#010101"/>
<path d="M25.1867 19.3754C24.9386 19.3754 24.6907 19.281 24.502 19.0913C24.1236 18.7127 24.1236 18.0992 24.502 17.7208L28.6612 13.5619L24.502 9.4027C24.1236 9.02429 24.1236 8.4108 24.502 8.0324C24.8806 7.65375 25.4941 7.65375 25.8725 8.0324L30.7161 12.876C31.0946 13.2544 31.0946 13.8679 30.7161 14.2463L25.8725 19.0899C25.6826 19.281 25.4348 19.3754 25.1867 19.3754Z" fill="#010101"/>
<path d="M10.3331 31.001C10.0566 31.001 9.79433 30.9622 9.53229 30.8808L1.75912 28.2911C0.70147 27.9217 0 26.9362 0 25.8346V2.58528C0 1.16059 1.15863 0.00195312 2.58333 0.00195312C2.85957 0.00195312 3.12185 0.0407398 3.38413 0.122097L11.1571 2.71181C12.215 3.08123 12.9162 4.06675 12.9162 5.16838V28.4177C12.9162 29.8424 11.7578 31.001 10.3331 31.001ZM2.58333 1.93939C2.2281 1.93939 1.93744 2.23006 1.93744 2.58528V25.8346C1.93744 26.1096 2.12215 26.3653 2.38561 26.457L10.1224 29.0352C10.1779 29.0531 10.2503 29.0635 10.3331 29.0635C10.6883 29.0635 10.9787 28.7729 10.9787 28.4177V5.16838C10.9787 4.89333 10.794 4.63767 10.5306 4.5459L2.79382 1.96777C2.73824 1.9498 2.66587 1.93939 2.58333 1.93939Z" fill="#010101"/>
<path d="M19.6972 10.3341C19.1625 10.3341 18.7285 9.90008 18.7285 9.36535V3.55303C18.7285 2.66306 18.0041 1.93842 17.1141 1.93842H2.58334C2.04861 1.93842 1.61462 1.50443 1.61462 0.969696C1.61462 0.434961 2.04861 0.000976562 2.58334 0.000976562H17.1141C19.0736 0.000976562 20.666 1.59359 20.666 3.55303V9.36535C20.666 9.90008 20.232 10.3341 19.6972 10.3341Z" fill="#010101"/>
<path d="M17.1141 27.1251H11.9475C11.4127 27.1251 10.9788 26.6911 10.9788 26.1564C10.9788 25.6216 11.4127 25.1876 11.9475 25.1876H17.1141C18.0041 25.1876 18.7285 24.463 18.7285 23.573V17.7607C18.7285 17.226 19.1625 16.792 19.6972 16.792C20.232 16.792 20.666 17.226 20.666 17.7607V23.573C20.666 25.5325 19.0736 27.1251 17.1141 27.1251Z" fill="#010101"/>
</g>
<defs>
<clipPath id="clip0">
<rect width="31" height="31" fill="white"/>
</clipPath>
</defs>
</svg>
